<svg xmlns="http://www.w3.org/2000/svg" viewBox="0 0 32 32">
  <defs>
    <!-- Background gradient -->
    <linearGradient id="bg" x1="0%" y1="0%" x2="100%" y2="100%">
      <stop offset="0%" stop-color="#0d0d12"/>
      <stop offset="100%" stop-color="#14141f"/>
    </linearGradient>
    <!-- Moon gradient (accent → primary) -->
    <linearGradient id="moon" x1="0%" y1="0%" x2="100%" y2="100%">
      <stop offset="0%" stop-color="#66b3ff"/>
      <stop offset="50%" stop-color="#0080ff"/>
      <stop offset="100%" stop-color="#0066cc"/>
    </linearGradient>
    <!-- Star sparkle gradient -->
    <linearGradient id="star" x1="0%" y1="0%" x2="100%" y2="100%">
      <stop offset="0%" stop-color="#ffffff"/>
      <stop offset="100%" stop-color="#99ccff"/>
    </linearGradient>
    <!-- Soft moonlight glow -->
    <radialGradient id="glow" cx="42%" cy="45%" r="50%">
      <stop offset="0%" stop-color="#0080ff" stop-opacity="0.15"/>
      <stop offset="100%" stop-color="#0080ff" stop-opacity="0"/>
    </radialGradient>
    <!-- Crescent mask: white moon minus offset black circle -->
    <mask id="crescent">
      <circle cx="16" cy="16" r="10" fill="white"/>
      <circle cx="21" cy="14.5" r="9" fill="black"/>
    </mask>
    <!-- Moon bloom filter -->
    <filter id="moonGlow" x="-50%" y="-50%" width="200%" height="200%">
      <feGaussianBlur in="SourceGraphic" stdDeviation="1.2" result="blur"/>
      <feColorMatrix in="blur" type="matrix" values="0 0 0 0 0 0 0 0 0 0.5 0 0 0 0 1 0 0 0 0.6 0" result="glow"/>
      <feMerge>
        <feMergeNode in="glow"/>
        <feMergeNode in="SourceGraphic"/>
      </feMerge>
    </filter>
    <!-- Star sparkle filter -->
    <filter id="starGlow" x="-100%" y="-100%" width="300%" height="300%">
      <feGaussianBlur in="SourceGraphic" stdDeviation="0.6" result="blur"/>
      <feColorMatrix in="blur" type="matrix" values="0 0 0 0 0.5 0 0 0 0 0.7 0 0 0 0 1 0 0 0 0.8 0" result="glow"/>
      <feMerge>
        <feMergeNode in="glow"/>
        <feMergeNode in="SourceGraphic"/>
      </feMerge>
    </filter>
  </defs>

  <!-- Dark background -->
  <rect width="32" height="32" rx="6" fill="url(#bg)"/>

  <!-- Ambient moonlight wash -->
  <rect width="32" height="32" rx="6" fill="url(#glow)"/>

  <!-- Crescent moon with glow (circle minus offset circle via mask) -->
  <g filter="url(#moonGlow)">
    <circle cx="16" cy="16" r="10" fill="url(#moon)" mask="url(#crescent)"/>
  </g>

  <!-- Sparkle star (4-point, symmetric) top-right -->
  <g filter="url(#starGlow)" transform="translate(25.5, 7)">
    <path d="M0 -2.2 C0.3 -0.3 0.3 -0.3 2.2 0 C0.3 0.3 0.3 0.3 0 2.2 C-0.3 0.3 -0.3 0.3 -2.2 0 C-0.3 -0.3 -0.3 -0.3 0 -2.2Z" fill="url(#star)"/>
  </g>

  <!-- Tiny sparkle accent -->
  <g filter="url(#starGlow)" transform="translate(23, 12) scale(0.45)">
    <path d="M0 -2.2 C0.3 -0.3 0.3 -0.3 2.2 0 C0.3 0.3 0.3 0.3 0 2.2 C-0.3 0.3 -0.3 0.3 -2.2 0 C-0.3 -0.3 -0.3 -0.3 0 -2.2Z" fill="white" opacity="0.7"/>
  </g>
</svg>
